<svg width="100" height="100" viewBox="0 0 100 100" fill="none" xmlns="http://www.w3.org/2000/svg">
<g clip-path="url(#clip0_15_126)">
<path d="M99.8125 72.2717C99.8574 71.8128 99.8894 71.3499 99.9144 70.8844C99.9449 70.3334 68.4449 38.8474 68.4449 38.8474H67.6918C67.6918 38.8474 99.6199 74.3268 99.8125 72.2713V72.2717Z" fill="url(#paint0_linear_15_126)"/>
<path d="M32.6063 61.349C32.5645 61.4457 32.5231 61.5424 32.4801 61.6387C32.4356 61.74 32.3895 61.8408 32.3438 61.9408C31.3399 64.1465 46.4012 79.6581 47.6125 77.7737C47.6676 77.6906 47.7231 77.6025 47.7782 77.5194C47.8395 77.4206 47.9 77.326 47.9606 77.2272C48.9293 75.6778 33.0364 60.3416 32.6063 61.349Z" fill="url(#paint1_linear_15_126)"/>
<path d="M53.8895 83.1621C53.8469 83.2609 53.5438 83.8008 53.2668 84.086C53.22 84.1847 67.97 99.5954 67.97 99.5954H69.2981C69.2989 99.5954 55.452 83.8135 53.8895 83.1621Z" fill="url(#paint2_linear_15_126)"/>
<path d="M99.9355 70.6046C99.2457 86.7145 86.5949 99.5955 71.1387 99.5955H69.0488L53.6137 83.5758C54.8832 81.6894 56.0637 79.735 57.1145 77.6972H71.1387C75.5738 77.6972 79.1832 73.8968 79.1832 69.2219C79.1832 64.549 75.5738 60.7466 71.1387 60.7466H62.8395C63.4719 57.2252 63.8176 53.5939 63.8176 49.8791C63.8176 46.1075 63.4656 42.4248 62.8105 38.847H67.9656L99.8445 71.9392C99.8824 71.4955 99.9125 71.0523 99.9355 70.6046ZM8.38555 0.000488281H0V21.8988H8.38555C23.0312 21.8988 34.948 34.4499 34.948 49.8791C34.948 54.0766 34.0594 58.0614 32.4801 61.6388L47.7781 77.5194C52.8012 69.6017 55.7375 60.096 55.7375 49.8791C55.7375 22.3762 34.4949 0.000488281 8.38555 0.000488281Z" fill="url(#paint3_linear_15_126)"/>
<path d="M71.1386 0.000488281H37.1824C45.4761 5.33506 52.3437 12.8993 57.023 21.8988H71.1386C75.5738 21.8988 79.1832 25.6993 79.1832 30.3741C79.1832 35.0478 75.5738 38.8482 71.1386 38.8482H67.9667L99.8457 71.94C99.9207 71.0425 99.9675 70.1392 99.9675 69.2219C99.9675 61.8396 97.4531 55.0676 93.2781 49.7968C97.4531 44.5285 99.9675 37.7552 99.9675 30.3741C99.9675 13.6268 87.0363 0.000488281 71.1386 0.000488281Z" fill="url(#paint4_linear_15_126)"/>
<path d="M69.0488 99.5955H37.425C43.7906 95.4539 49.2938 89.9864 53.6137 83.5757L69.0488 99.5955ZM47.7781 77.5193L32.4813 61.6387C28.2551 71.207 19.0457 77.8617 8.38555 77.8617H0V99.758H8.38555C24.7957 99.758 39.2801 90.9152 47.7781 77.5193Z" fill="url(#paint5_linear_15_126)"/>
</g>
<defs>
<linearGradient id="paint0_linear_15_126" x1="41.0639" y1="7.74357" x2="103.638" y2="71.9355" gradientUnits="userSpaceOnUse">
<stop stop-color="#F9A03C"/>
<stop offset="1" stop-color="#F7974E"/>
</linearGradient>
<linearGradient id="paint1_linear_15_126" x1="-8.3743" y1="19.8965" x2="50.74" y2="74.3502" gradientUnits="userSpaceOnUse">
<stop stop-color="#F9A03C"/>
<stop offset="1" stop-color="#F7974E"/>
</linearGradient>
<linearGradient id="paint2_linear_15_126" x1="17.4907" y1="40.112" x2="69.7756" y2="98.5904" gradientUnits="userSpaceOnUse">
<stop stop-color="#F9A03C"/>
<stop offset="1" stop-color="#F7974E"/>
</linearGradient>
<linearGradient id="paint3_linear_15_126" x1="11.3317" y1="-1.81413" x2="82.1347" y2="91.9671" gradientUnits="userSpaceOnUse">
<stop stop-color="#F26D58"/>
<stop offset="1" stop-color="#F9A03C"/>
</linearGradient>
<linearGradient id="paint4_linear_15_126" x1="47.1301" y1="2.77592" x2="117.673" y2="43.2302" gradientUnits="userSpaceOnUse">
<stop stop-color="#B84E51"/>
<stop offset="1" stop-color="#F68E48"/>
</linearGradient>
<linearGradient id="paint5_linear_15_126" x1="32.4419" y1="70.5838" x2="33.4736" y2="117.874" gradientUnits="userSpaceOnUse">
<stop stop-color="#F9A03C"/>
<stop offset="1" stop-color="#F7974E"/>
</linearGradient>
<clipPath id="clip0_15_126">
<rect width="100" height="100" fill="white" transform="translate(0 0.000488281)"/>
</clipPath>
</defs>
</svg>
