<svg width="100" height="100" viewBox="0 0 100 100" fill="none" xmlns="http://www.w3.org/2000/svg">
<path d="M83.3333 16.6667H16.6667C12.0833 16.6667 8.37501 20.4167 8.37501 25.0001L8.33334 75.0001C8.33334 79.5834 12.0833 83.3334 16.6667 83.3334H83.3333C87.9167 83.3334 91.6667 79.5834 91.6667 75.0001V25.0001C91.6667 20.4167 87.9167 16.6667 83.3333 16.6667ZM81.6667 34.3751L52.2083 52.7917C50.875 53.6251 49.125 53.6251 47.7917 52.7917L18.3333 34.3751C17.9155 34.1405 17.5497 33.8237 17.2579 33.4436C16.9661 33.0636 16.7544 32.6283 16.6357 32.1641C16.517 31.6999 16.4938 31.2165 16.5673 30.743C16.6409 30.2696 16.8097 29.816 17.0637 29.4097C17.3176 29.0034 17.6514 28.6528 18.0447 28.3792C18.438 28.1056 18.8828 27.9147 19.3521 27.818C19.8213 27.7213 20.3054 27.7208 20.7748 27.8165C21.2443 27.9123 21.6894 28.1023 22.0833 28.3751L50 45.8334L77.9167 28.3751C78.3106 28.1023 78.7557 27.9123 79.2252 27.8165C79.6947 27.7208 80.1787 27.7213 80.6479 27.818C81.1172 27.9147 81.562 28.1056 81.9553 28.3792C82.3487 28.6528 82.6824 29.0034 82.9363 29.4097C83.1903 29.816 83.3591 30.2696 83.4327 30.743C83.5062 31.2165 83.483 31.6999 83.3643 32.1641C83.2456 32.6283 83.0339 33.0636 82.7421 33.4436C82.4503 33.8237 82.0845 34.1405 81.6667 34.3751Z" fill="white"/>
</svg>
