<svg width="35" height="35" viewBox="0 0 35 35" fill="none" xmlns="http://www.w3.org/2000/svg">
<path d="M22.9688 12.0312C24.4192 12.0312 25.8102 11.4551 26.8357 10.4295C27.8613 9.4039 28.4375 8.0129 28.4375 6.5625C28.4375 5.1121 27.8613 3.7211 26.8357 2.69551C25.8102 1.66992 24.4192 1.09375 22.9688 1.09375H12.0313C10.5809 1.09375 9.18985 1.66992 8.16426 2.69551C7.13867 3.7211 6.5625 5.1121 6.5625 6.5625C6.5625 8.0129 7.13867 9.4039 8.16426 10.4295C9.18985 11.4551 10.5809 12.0312 12.0313 12.0312C10.5809 12.0312 9.18985 12.6074 8.16426 13.633C7.13867 14.6586 6.5625 16.0496 6.5625 17.5C6.5625 18.9504 7.13867 20.3414 8.16426 21.367C9.18985 22.3926 10.5809 22.9688 12.0313 22.9688C10.9496 22.9688 9.89231 23.2895 8.99298 23.8904C8.09365 24.4913 7.3927 25.3454 6.97879 26.3447C6.56487 27.344 6.45657 28.4436 6.66758 29.5044C6.8786 30.5652 7.39944 31.5397 8.16426 32.3045C8.92908 33.0693 9.90352 33.5902 10.9644 33.8012C12.0252 34.0122 13.1248 33.9039 14.1241 33.49C15.1233 33.076 15.9774 32.3751 16.5784 31.4758C17.1793 30.5764 17.5 29.5191 17.5 28.4375V12.0312H22.9688Z" fill="#E5E5E5"/>
<path d="M22.9688 22.9688C25.9891 22.9688 28.4375 20.5203 28.4375 17.5C28.4375 14.4797 25.9891 12.0312 22.9688 12.0312C19.9484 12.0312 17.5 14.4797 17.5 17.5C17.5 20.5203 19.9484 22.9688 22.9688 22.9688Z" fill="#E5E5E5"/>
</svg>
