<svg width="35" height="35" viewBox="0 0 35 35" fill="none" xmlns="http://www.w3.org/2000/svg">
<path d="M29.1667 27.2563L18.5208 33.1625C17.7917 33.5417 17.0625 33.5417 16.3333 33.1625L5.83334 27.2563L24.8646 8.07918L25.375 7.93335C25.8125 7.93335 26.0604 8.12293 26.1042 8.51668L29.1667 27.2563ZM13.6354 8.37085L7.00001 19.3813L9.77084 1.95418C9.81459 1.56043 10.0625 1.37085 10.5 1.37085C10.7917 1.37085 10.9813 1.45835 11.0833 1.73543L14.2188 7.49585L13.6354 8.37085ZM20.1979 10.2083L6.27084 24.1938L16.8438 6.25627C16.9896 5.9646 17.2083 5.83335 17.5 5.83335C17.7917 5.83335 17.9813 5.9646 18.0833 6.25627L20.1979 10.2083Z" fill="#E5E5E5"/>
</svg>
