<svg width="35" height="35" viewBox="0 0 35 35" fill="none" xmlns="http://www.w3.org/2000/svg">
<path d="M3.79167 15.4438L12.2208 7.00001L14.6854 9.47918C14.3354 10.7188 14.9042 12.075 16.0417 12.7313V20.8104C15.1667 21.3063 14.5833 22.2542 14.5833 23.3333C14.5833 24.1069 14.8906 24.8488 15.4376 25.3957C15.9846 25.9427 16.7265 26.25 17.5 26.25C18.2736 26.25 19.0154 25.9427 19.5624 25.3957C20.1094 24.8488 20.4167 24.1069 20.4167 23.3333C20.4167 22.2542 19.8333 21.3063 18.9583 20.8104V13.7229L21.9771 16.7708C21.875 16.9896 21.875 17.2375 21.875 17.5C21.875 18.2736 22.1823 19.0154 22.7293 19.5624C23.2763 20.1094 24.0181 20.4167 24.7917 20.4167C25.5652 20.4167 26.3071 20.1094 26.8541 19.5624C27.4011 19.0154 27.7083 18.2736 27.7083 17.5C27.7083 16.7265 27.4011 15.9846 26.8541 15.4376C26.3071 14.8906 25.5652 14.5833 24.7917 14.5833C24.5292 14.5833 24.2813 14.5833 24.0625 14.6854L20.3146 10.9375C20.4957 10.2621 20.4255 9.54385 20.117 8.91625C19.8086 8.28864 19.2829 7.7943 18.6375 7.52501C18.0104 7.29167 17.3542 7.23334 16.7708 7.39376L14.2917 4.92918L15.4438 3.79167C16.5813 2.63959 18.4188 2.63959 19.5563 3.79167L31.2083 15.4438C32.3604 16.5813 32.3604 18.4188 31.2083 19.5563L19.5563 31.2083C18.4188 32.3604 16.5813 32.3604 15.4438 31.2083L3.79167 19.5563C2.63959 18.4188 2.63959 16.5813 3.79167 15.4438Z" fill="#E5E5E5"/>
</svg>
