<svg width="70" height="100" viewBox="0 0 70 100" fill="none" xmlns="http://www.w3.org/2000/svg">
<g clip-path="url(#clip0_15_140)">
<path d="M19.2356 74.0777C22.1278 77.7634 24.76 81.6457 27.1133 85.6968C29.1225 89.5066 29.9601 92.09 31.4285 96.6804C32.3291 99.2167 33.143 99.9736 34.8928 99.9736C36.7996 99.9736 37.6648 98.6859 38.3331 96.6943C39.7212 92.3592 40.8103 89.0507 42.5285 85.9246C45.9002 79.8891 50.0898 74.5259 54.2064 69.3714C55.3209 67.9126 62.5263 59.4137 65.7702 52.7077C65.7702 52.7077 69.7571 45.3412 69.7571 35.0532C69.7571 25.4298 65.8252 18.7554 65.8252 18.7554L54.5051 21.787L47.6304 39.8935L45.9296 42.3902L45.5895 42.8426L45.1372 43.4088L44.3432 44.3131L43.2086 45.4475L37.0868 50.4349L21.7816 59.272L19.2356 74.0777Z" fill="#34A853"/>
<path d="M3.43915 51.4692C7.17457 60.0014 14.3778 67.5016 19.2514 74.0836L45.1372 43.4204C45.1372 43.4204 41.4904 48.1899 34.8751 48.1899C27.5065 48.1899 21.5536 42.3057 21.5536 34.8861C21.5536 29.7981 24.6146 26.3027 24.6146 26.3027L7.04269 31.0112L3.43915 51.4689V51.4692Z" fill="#FBBC04"/>
<path d="M45.4263 1.57693C54.0236 4.34887 61.3822 10.1682 65.8331 18.7494L45.1451 43.4028C45.1451 43.4028 48.2061 39.8442 48.2061 34.7878C48.2061 27.1955 41.8129 21.5235 34.9064 21.5235C28.3753 21.5235 24.6244 26.2851 24.6244 26.2851V10.7538L45.4263 1.57666V1.57693Z" fill="#4285F4"/>
<path d="M8.18109 12.47C13.316 6.32643 22.3514 0 34.8081 0C40.8517 0 45.4048 1.58665 45.4048 1.58665L24.6048 26.2986H9.86774L8.18109 12.4703V12.47Z" fill="#1A73E8"/>
<path d="M3.43914 51.4692C3.43914 51.4692 0.00262451 44.7394 0.00262451 34.9901C0.00262451 25.7757 3.58464 17.7212 8.1811 12.47L24.6165 26.3008L3.43914 51.4692Z" fill="#EA4335"/>
</g>
<defs>
<clipPath id="clip0_15_140">
<rect width="69.76" height="100" fill="white"/>
</clipPath>
</defs>
</svg>
