<svg width="33" height="40" viewBox="0 0 33 40" fill="none" xmlns="http://www.w3.org/2000/svg">
<path d="M32.15 32L19.97 11H16.07V14.27H19.46L17.09 12.59L28.13 32H32.15ZM26.39 27.14L26.27 24.08H16.07V27.14H26.39ZM13.79 19.73H3.35V22.94H13.82L13.79 19.73ZM13.49 28.73H1.64V32H17.39V11H2.06V14.27H13.49V28.73Z" fill="#E5E5E5"/>
<rect y="11" width="15" height="23" fill="#232323"/>
<path d="M8.8 39.32C7.14667 39.32 5.6 38.9733 4.16 38.28C2.72 37.5867 1.54667 36.5867 0.64 35.28L2.96 32.56C3.73333 33.6267 4.6 34.4533 5.56 35.04C6.54667 35.6 7.62667 35.88 8.8 35.88C12 35.88 13.6 33.9867 13.6 30.2V14.48H3.48V11H17.56V30C17.56 33.12 16.8133 35.4533 15.32 37C13.8533 38.5467 11.68 39.32 8.8 39.32Z" fill="#E5E5E5"/>
<path d="M17.625 6.825L21.025 3.575H24.075L19.875 6.825H17.625Z" fill="#E5E5E5"/>
</svg>
