<svg width="35" height="35" viewBox="0 0 35 35" fill="none" xmlns="http://www.w3.org/2000/svg">
<g clip-path="url(#clip0_12_74)">
<path d="M24.6957 12.425C24.8608 12.5092 25.0139 12.623 25.1386 12.7608L28.5632 11.2339L25.3683 8.06642L24.6497 12.3791L24.6957 12.425ZM17.5863 9.54735C17.7569 9.79782 17.8586 10.0822 17.8936 10.3841L22.9916 12.5442C23.1447 12.425 23.3208 12.3386 23.5089 12.2872L24.3457 7.10829L21.2405 3.85001L17.5841 9.46642L17.5863 9.54735ZM34.9879 17.5514L29.5246 12.0881L25.8047 13.6095L34.943 17.4945C34.943 17.4945 35.0229 17.5514 34.9879 17.5514ZM34.0768 18.4406L25.3049 14.6913C25.1828 14.8529 25.0296 14.9885 24.8544 15.0901C24.6791 15.1917 24.4854 15.2573 24.2844 15.283L23.3449 21.0547C23.6238 21.3391 23.7835 21.7208 23.7835 22.1189L29.0805 23.2302L33.94 18.4045V18.3138L34.0768 18.4406ZM22.4557 13.4892L17.6946 11.4603C17.5308 11.7123 17.3046 11.9177 17.0381 12.0564C16.7715 12.1952 16.4735 12.2626 16.1732 12.2522H15.8833L11.936 18.3422L22.4743 13.7791V13.7911C22.4688 13.7095 22.4688 13.6277 22.4743 13.5461C22.4797 13.5286 22.4743 13.5067 22.4568 13.4892H22.4557ZM28.2438 24.1489L23.5844 23.1853C23.4113 23.4121 23.1784 23.5859 22.9118 23.6874L21.8005 30.5747L28.2722 24.1599C28.2722 24.1599 28.2602 24.1949 28.2427 24.1949L28.2438 24.1489ZM21.7261 23.6742C21.5054 23.5839 21.309 23.443 21.1526 23.2629C20.9963 23.0829 20.8844 22.8686 20.826 22.6374L12.1504 20.8556L12.0246 21.0558L19.8985 32.4428L20.371 31.9758L21.7097 23.7038C21.7097 23.7038 21.7546 23.7377 21.7261 23.7213V23.6742ZM12.333 19.8067L20.9069 21.5731C21.0299 21.3576 21.2037 21.1755 21.4132 21.0426C21.6227 20.9097 21.8616 20.8301 22.1089 20.8108L23.0375 15.1364L22.8374 14.9658L12.1799 19.5344C12.2368 19.6186 12.2882 19.7105 12.333 19.8067ZM8.73785 21.2363L8.5552 21.0558L4.85832 22.575L6.65207 24.3589L8.69191 21.1914L8.73785 21.2363ZM11.1769 21.8181C10.9192 21.9343 10.6404 21.9964 10.3577 22.0008C10.1291 22.0008 9.91254 21.9658 9.69598 21.8925L7.44613 25.1683L17.3129 34.9431L19.0497 33.2161L11.1769 21.8181ZM9.79223 17.967C9.93988 17.9506 10.0941 17.9506 10.2472 17.967C10.4135 17.9452 10.5841 17.9452 10.7493 17.967L14.736 11.7688C14.4254 11.4456 14.2518 11.0149 14.2514 10.5667C14.235 10.4345 14.235 10.3008 14.2514 10.1686L9.40941 7.9297L5.51238 11.7228L9.79223 17.967ZM10.2319 7.17173L14.9536 9.18314C15.2946 8.89834 15.7292 8.75024 16.1732 8.76751C16.3668 8.77298 16.5593 8.80142 16.7474 8.85829L20.4344 3.10517L17.3861 0.0568848L10.2319 7.07985C10.2319 7.07985 10.2199 7.15423 10.2319 7.17173ZM8.46551 19.0783C8.56176 18.9022 8.68098 18.737 8.81879 18.5883L4.77957 12.5606L0.000976562 17.2036L8.46551 19.0783ZM8.08379 20.0977L0.774258 18.5708L3.9866 21.8302L8.03785 20.1097L8.08379 20.0977Z" fill="#E5E5E5"/>
</g>
<defs>
<clipPath id="clip0_12_74">
<rect width="35" height="35" fill="white"/>
</clipPath>
</defs>
</svg>
