<svg width="35" height="35" viewBox="0 0 35 35" fill="none" xmlns="http://www.w3.org/2000/svg">
<path d="M29.3781 8.89147L18.753 2.51901C18.3714 2.30143 17.9397 2.18701 17.5003 2.18701C17.061 2.18701 16.6293 2.30143 16.2477 2.51901L5.62188 8.89079C5.23896 9.12544 4.92302 9.45489 4.70461 9.8473C4.48619 10.2397 4.37266 10.6818 4.375 11.1309V23.8574C4.37271 24.3068 4.48623 24.7491 4.70463 25.1419C4.92303 25.5346 5.23893 25.8644 5.62188 26.0996L8.40821 27.7634L8.42393 27.7723C9.83077 28.4922 10.3694 28.4922 10.9936 28.4922C13.1906 28.4922 14.5558 27.0703 14.5558 24.7809V12.4414C14.557 12.2873 14.4972 12.1391 14.3893 12.0291C14.2813 11.9191 14.1342 11.8565 13.9802 11.8548H12.4503C12.2962 11.8565 12.1491 11.9191 12.0412 12.0291C11.9333 12.1391 11.8734 12.2873 11.8747 12.4414V24.7809C11.8803 24.9576 11.8401 25.1327 11.758 25.2892C11.676 25.4458 11.5549 25.5784 11.4065 25.6744C11.0031 25.9205 10.4173 25.8685 9.75626 25.5274L7.08614 23.9203C7.07592 23.9133 7.06757 23.9039 7.06185 23.8929C7.05613 23.882 7.0532 23.8698 7.05333 23.8574V11.3107C7.05376 11.2963 7.05766 11.2822 7.06467 11.2696C7.07169 11.257 7.08163 11.2462 7.09366 11.2382L17.4733 4.88083C17.4811 4.87697 17.4896 4.87497 17.4983 4.87497C17.507 4.87497 17.5155 4.87697 17.5232 4.88083L27.9091 11.2382C27.9209 11.2469 27.9305 11.2582 27.937 11.2713C27.9436 11.2844 27.9469 11.2988 27.9467 11.3134V23.8574C27.9469 23.8703 27.9443 23.8832 27.939 23.895C27.9337 23.9069 27.9258 23.9173 27.9159 23.9257L17.5212 30.1225C17.5035 30.1287 17.4842 30.1287 17.4665 30.1225L14.8121 28.5462C14.7333 28.4946 14.6423 28.4649 14.5483 28.46C14.4543 28.4551 14.3606 28.4751 14.2769 28.5181L14.2536 28.5318C13.5208 28.9659 13.3239 29.0787 12.6444 29.3261C12.5337 29.3665 12.2732 29.4629 12.2507 29.7206C12.2281 29.9783 12.4756 30.1615 12.6957 30.2893L16.2436 32.4679C16.6216 32.6944 17.0539 32.8141 17.4945 32.8145H17.5342C17.9638 32.8078 18.3841 32.6883 18.753 32.4679L29.3781 26.1016C29.7609 25.8658 30.0766 25.5355 30.2949 25.1425C30.5133 24.7495 30.6269 24.307 30.625 23.8574V11.1309C30.6272 10.682 30.5136 10.24 30.2951 9.84774C30.0767 9.45547 29.7609 9.12612 29.3781 8.89147Z" fill="#E5E5E5"/>
<path d="M21.0465 21.7417C18.4974 21.7417 17.9539 21.0294 17.7926 19.8796C17.7744 19.7427 17.7077 19.6168 17.6045 19.525C17.5014 19.4332 17.3687 19.3814 17.2307 19.3792H15.8771C15.7246 19.3824 15.5795 19.4459 15.4737 19.5559C15.3679 19.6658 15.3099 19.8131 15.3125 19.9657C15.3125 20.9624 15.6625 24.2156 21.0492 24.2156C22.7158 24.2156 24.1021 23.826 25.0571 23.0884C26.0121 22.3508 26.5234 21.2775 26.5234 19.9985C26.5234 17.4316 24.8486 16.7289 21.5503 16.2695C18.1973 15.8033 18.1973 15.5661 18.1973 15.0466C18.1973 14.6726 18.1973 13.7969 20.6213 13.7969C22.346 13.7969 23.2695 14.015 23.5648 15.1641C23.591 15.2915 23.6599 15.4062 23.7601 15.4891C23.8603 15.572 23.9858 15.6182 24.1158 15.6201H25.4741C25.5542 15.6193 25.6331 15.6015 25.7057 15.5677C25.7783 15.534 25.8429 15.4852 25.8952 15.4246C25.9996 15.3027 26.0517 15.1445 26.0401 14.9844C25.8644 12.5542 24.0878 11.3217 20.6233 11.3217C17.4747 11.3217 15.5955 12.7401 15.5955 15.1156C15.5955 17.7201 17.5431 18.4563 20.4688 18.7612C23.8868 19.1146 23.8868 19.6301 23.8868 20.0853C23.8889 20.7949 23.5942 21.7417 21.0465 21.7417Z" fill="#E5E5E5"/>
</svg>
