<svg width="35" height="35" viewBox="0 0 35 35" fill="none" xmlns="http://www.w3.org/2000/svg">
<path d="M28.0725 12.3539C27.7229 12.2345 27.3709 12.1233 27.0163 12.0203C27.0751 11.781 27.1293 11.5404 27.179 11.2984C27.9788 7.40875 27.4559 4.27515 25.671 3.24361C23.962 2.25377 21.1593 3.28531 18.3319 5.75171C18.0539 5.99507 17.7816 6.24572 17.515 6.50367C17.3373 6.33231 17.155 6.1646 16.9682 6.00054C14.0048 3.36324 11.0346 2.2524 9.25176 3.28736C7.54277 4.27925 7.03486 7.22486 7.75469 10.9115C7.82669 11.2761 7.90758 11.6391 7.99736 12.0004C7.58883 12.1163 7.18374 12.2439 6.78262 12.3833C3.3127 13.5966 1.09375 15.4991 1.09375 17.4719C1.09375 19.5104 3.47539 21.5544 7.09365 22.7937C7.38714 22.8935 7.68337 22.9863 7.98232 23.0719C7.88525 23.4588 7.79935 23.8501 7.72461 24.2457C7.04102 27.8687 7.57422 30.7446 9.27979 31.7303C11.0414 32.7482 13.9966 31.7023 16.8772 29.1798C17.1051 28.9802 17.333 28.7695 17.5608 28.5475C17.8489 28.826 18.1451 29.0962 18.4495 29.3583C21.2386 31.7631 23.9928 32.7345 25.6956 31.746C27.4559 30.7248 28.028 27.6349 27.285 23.8758C27.228 23.5887 27.1624 23.2957 27.0881 22.9967C27.2959 22.9352 27.4994 22.8716 27.6985 22.806C31.4583 21.5571 33.9076 19.5377 33.9076 17.474C33.9062 15.4916 31.6162 13.5768 28.0725 12.3539ZM19.2541 6.81128C21.6761 4.6983 23.9401 3.86431 24.9724 4.46041C26.0709 5.09546 26.4981 7.65621 25.8077 11.0147C25.7621 11.2335 25.7129 11.4515 25.6601 11.6689C24.2147 11.3401 22.749 11.1081 21.2728 10.9744C20.4275 9.7568 19.501 8.59775 18.4994 7.50513C18.7446 7.26724 18.9957 7.03596 19.2527 6.81128H19.2541ZM10.7823 19.1577C11.079 19.7319 11.3891 20.299 11.7127 20.8591C12.0422 21.4306 12.3856 21.9937 12.7429 22.5483C11.7271 22.4379 10.7177 22.2752 9.71865 22.0609C10.0085 21.123 10.3653 20.1489 10.7823 19.1577ZM10.7823 15.8539C10.3722 14.8838 10.0249 13.9295 9.73984 13.0081C10.6764 12.7982 11.6744 12.6266 12.7148 12.4967C12.3662 13.0409 12.0308 13.593 11.7086 14.1531C11.3864 14.7132 11.077 15.2801 10.7803 15.8539H10.7823ZM11.5274 17.5061C11.9595 16.6051 12.4248 15.7215 12.9233 14.8551C13.4215 13.9892 13.9517 13.1432 14.5141 12.3169C15.4902 12.2431 16.491 12.2042 17.5021 12.2042C18.5131 12.2042 19.52 12.2431 20.4955 12.3176C21.052 13.142 21.579 13.9851 22.0767 14.8469C22.5743 15.7087 23.0458 16.5883 23.491 17.4856C23.0517 18.3898 22.5814 19.2771 22.0801 20.1475C21.5829 21.0134 21.0588 21.862 20.5078 22.6932C19.5337 22.7616 18.5254 22.7992 17.5 22.7992C16.4746 22.7992 15.4854 22.767 14.5291 22.7048C13.9626 21.8759 13.4281 21.0262 12.9254 20.1557C12.4227 19.2853 11.9561 18.4021 11.5254 17.5061H11.5274ZM23.2935 20.8496C23.6239 20.2763 23.941 19.6954 24.245 19.1071C24.6617 20.0519 25.0295 21.0175 25.347 22.0001C24.3362 22.2277 23.3142 22.4022 22.2852 22.523C22.6324 21.972 22.9685 21.4142 23.2935 20.8496ZM24.2313 15.8545C23.9287 15.278 23.6141 14.7084 23.2873 14.1456C22.9683 13.5905 22.6358 13.0422 22.2899 12.5008C23.3365 12.6335 24.3407 12.8098 25.282 13.0252C24.9794 13.9853 24.6287 14.9296 24.2313 15.8545ZM17.5157 8.50933C18.1983 9.2552 18.8429 10.035 19.4469 10.8459C18.1549 10.7843 16.862 10.7843 15.5682 10.8459C16.206 10.0023 16.8588 9.21959 17.5157 8.50933ZM9.95723 4.5021C11.0551 3.865 13.4825 4.77554 16.0412 7.04986C16.2046 7.19546 16.3693 7.34791 16.5334 7.50582C15.5267 8.59828 14.5936 9.75632 13.7402 10.9723C12.2673 11.105 10.8045 11.3334 9.36113 11.6559C9.27773 11.3205 9.20254 10.9828 9.13555 10.6428C8.51689 7.48257 8.92637 5.10025 9.95723 4.5021ZM8.35693 21.7184C8.0835 21.6405 7.81348 21.5559 7.54688 21.4648C5.94727 20.9179 4.62588 20.2043 3.71875 19.427C2.90664 18.7304 2.49512 18.0352 2.49512 17.4719C2.49512 16.275 4.27656 14.7478 7.24746 13.7122C7.6207 13.5823 7.99714 13.4636 8.37676 13.356C8.81798 14.774 9.35235 16.1613 9.97637 17.5088C9.34491 18.875 8.80393 20.2813 8.35693 21.7184ZM15.9537 28.1216C14.6802 29.2373 13.4046 30.0282 12.2801 30.4267C11.2697 30.7842 10.4651 30.7945 9.9791 30.5135C8.94414 29.9154 8.51348 27.6055 9.10068 24.5075C9.17041 24.1429 9.25016 23.7783 9.33994 23.4137C10.7977 23.7278 12.2752 23.9422 13.7621 24.0556C14.6238 25.278 15.5646 26.4426 16.5785 27.5419C16.3748 27.7422 16.1663 27.935 15.9537 28.1216ZM17.5547 26.5343C16.8902 25.8159 16.2271 25.0209 15.5805 24.1664C16.2089 24.191 16.8488 24.2033 17.5 24.2033C18.1686 24.2033 18.8303 24.1889 19.4824 24.1595C18.8806 24.9834 18.2372 25.776 17.5547 26.5343ZM26.0668 28.4887C25.8713 29.5442 25.4782 30.2483 24.9922 30.5299C23.9579 31.1301 21.7465 30.3502 19.3621 28.2932C19.0887 28.0581 18.8152 27.8058 18.537 27.5413C19.5312 26.4376 20.4499 25.2683 21.2871 24.0413C22.7822 23.9146 24.2669 23.685 25.7305 23.3543C25.7975 23.625 25.8567 23.8902 25.9082 24.15C26.237 25.8111 26.2842 27.3136 26.0668 28.4887ZM27.2563 21.4723C27.0771 21.5318 26.8926 21.5892 26.7053 21.6453C26.2463 20.2206 25.6911 18.8288 25.0435 17.4794C25.6668 16.1481 26.2003 14.7765 26.6403 13.3738C26.976 13.4715 27.3021 13.5741 27.6158 13.6828C30.6523 14.73 32.5049 16.2804 32.5049 17.4719C32.5049 18.7434 30.504 20.3936 27.2563 21.4723Z" fill="#E5E5E5"/>
<path d="M17.5 20.4087C18.0818 20.4106 18.651 20.2398 19.1357 19.9179C19.6203 19.5961 19.9986 19.1377 20.2225 18.6008C20.4465 18.0638 20.506 17.4725 20.3937 16.9017C20.2814 16.3308 20.0022 15.8062 19.5915 15.3941C19.1808 14.9821 18.657 14.7012 18.0866 14.587C17.5161 14.4728 16.9246 14.5304 16.3869 14.7526C15.8492 14.9748 15.3896 15.3516 15.0662 15.8352C14.7428 16.3188 14.5701 16.8874 14.5701 17.4692C14.5693 17.8547 14.6445 18.2365 14.7913 18.5928C14.9381 18.9492 15.1538 19.2732 15.4259 19.5462C15.698 19.8191 16.0212 20.0358 16.3771 20.1838C16.733 20.3318 17.1146 20.4082 17.5 20.4087Z" fill="#E5E5E5"/>
</svg>
