<svg width="210" height="100" viewBox="0 0 210 100" fill="none" xmlns="http://www.w3.org/2000/svg">
<g clip-path="url(#clip0_15_135)">
<path d="M64.0385 66.134C74.5533 66.134 83.0771 58.7118 83.0771 49.5554C83.0771 40.4004 74.5533 32.9783 64.0377 32.9783C53.5238 32.9783 44.9999 40.3997 44.9999 49.5561C44.9999 58.7118 53.5238 66.134 64.0385 66.134ZM19.0386 99.289C29.5534 99.289 38.0773 91.8675 38.0773 82.7111C38.0773 73.5561 29.5534 66.134 19.0378 66.134C8.52469 66.134 0 73.5554 0 82.7111C0 91.8668 8.52305 99.2897 19.0386 99.2897V99.289ZM190.961 99.289C201.476 99.289 210 91.8675 210 82.7111C210 73.5561 201.477 66.134 190.961 66.134C180.447 66.134 171.923 73.5554 171.923 82.7111C171.923 91.8668 180.447 99.2897 190.962 99.2897L190.961 99.289Z" fill="black"/>
<path d="M128.432 50.2548C127.824 44.7162 127.513 40.1062 122.641 36.8662C116.47 32.7633 109.48 35.4255 100.87 32.719C92.4082 30.9369 86.1328 24.3962 86.1328 16.5998C86.1328 7.4319 94.8101 -0.000244141 105.514 -0.000244141C113.442 -0.000244141 120.258 4.07618 123.26 9.91618C127.855 17.5162 124.868 25.2498 130.641 29.1455C137.477 33.7583 146.693 30.3805 156.977 34.7512C160.259 36.0627 163.055 38.1471 165.049 40.769C167.084 43.4465 168.168 46.5873 168.164 49.7983C168.164 57.5948 161.889 64.1362 153.428 65.9183C144.817 68.6248 137.826 65.9626 131.656 70.0655C124.716 74.6798 128.431 82.399 122.775 90.5526C119.565 95.9226 113.041 99.5976 105.514 99.5976C94.8101 99.5976 86.1328 92.1655 86.1328 82.9976C86.1328 76.3383 90.7118 70.5947 97.3202 67.9505C107.604 63.579 116.819 66.9576 123.656 62.3447C127.599 59.6833 128.432 55.5783 128.432 50.2548Z" fill="#D0021B"/>
</g>
<defs>
<clipPath id="clip0_15_135">
<rect width="210" height="100" fill="white" transform="translate(0 -0.000244141)"/>
</clipPath>
</defs>
</svg>
