<svg width="100" height="100" viewBox="0 0 100 100" fill="none" xmlns="http://www.w3.org/2000/svg">
<g clip-path="url(#clip0_15_133)">
<path d="M69.2894 69.5627C72.9797 69.1619 75.7793 65.8242 75.6519 61.8184C75.525 57.8131 72.3434 54.6086 68.5258 54.6086H68.2715C64.3262 54.7422 61.2723 58.2135 61.3996 62.3524C61.5269 64.3553 62.2902 66.091 63.4355 67.2926C59.109 76.2385 52.4918 82.7807 42.566 88.2549C35.8215 91.9934 28.8227 93.3287 21.8238 92.3942C16.0973 91.593 11.6434 88.9229 8.84336 84.5164C4.77148 77.9742 4.38984 70.8975 7.82578 63.8213C10.2437 58.7475 14.0609 55.009 16.4789 53.1397C15.9699 51.4041 15.2062 48.4668 14.8246 46.3307C-3.62735 60.35 -1.71836 79.3094 3.88085 88.2549C8.08007 94.9311 16.6062 99.0701 26.023 99.0701C28.568 99.0701 31.1129 98.8029 33.6582 98.1356C49.9469 94.7975 62.2906 84.65 69.2894 69.5627ZM91.6863 53.0065C82.0148 41.1234 67.7625 34.5811 51.4738 34.5811H49.4379C48.2926 32.1779 45.8746 30.5754 43.2023 30.5754H42.9477C39.0031 30.709 35.9492 34.1803 36.0762 38.3197C36.2035 42.325 39.3848 45.5295 43.2023 45.5295H43.4566C46.2562 45.3959 48.6742 43.5266 49.6922 40.9897H51.9828C61.6543 40.9897 70.8164 43.927 79.0883 49.6684C85.4508 54.0746 90.032 59.816 92.5769 66.7586C94.7402 72.3664 94.6129 77.8406 92.3223 82.5139C88.7594 89.5901 82.7785 93.4623 74.8887 93.4623C69.7984 93.4623 64.9629 91.8598 62.4176 90.6582C61.018 91.9934 58.4726 94.1295 56.691 95.4651C62.1633 98.1352 67.7625 99.6041 73.107 99.6041C85.3234 99.6041 94.3586 92.5274 97.7945 85.4512C101.485 77.707 101.23 64.3553 91.6863 53.0065ZM27.041 71.832C27.1684 75.8377 30.3496 79.0418 34.1672 79.0418H34.4219C38.3668 78.9086 41.4207 75.4369 41.2934 71.2979C41.1664 67.2922 37.9848 64.0881 34.1672 64.0881H33.9129C33.6582 64.0881 33.2762 64.0881 33.0223 64.2213C27.8047 55.1422 25.6414 45.2623 26.4051 34.5807C26.9137 26.5697 29.459 19.6266 33.9129 13.8852C37.6031 8.94508 44.7293 6.5418 49.5652 6.40861C63.0539 6.14139 68.7801 23.7656 69.1621 30.8422C70.8164 31.2426 73.616 32.1775 75.525 32.8451C73.9977 11.2156 61.2723 0 49.0562 0C37.6031 0 27.041 8.67869 22.8414 21.4963C16.9879 38.5865 20.8055 55.009 27.9316 67.9602C27.2957 68.8947 26.9137 70.3635 27.041 71.8324V71.832Z" fill="#764ABC"/>
</g>
<defs>
<clipPath id="clip0_15_133">
<rect width="100" height="100" fill="white"/>
</clipPath>
</defs>
</svg>
