<svg width="100" height="100" viewBox="0 0 100 100" fill="none" xmlns="http://www.w3.org/2000/svg">
<path d="M81.3435 54.7211C78.5956 54.7247 75.8846 55.353 73.4153 56.5586C72.6422 55.2756 72.0452 53.8945 71.6403 52.4523C71.4077 51.3219 71.3539 50.1619 71.481 49.0148C71.7481 47.7526 72.0946 46.5084 72.5185 45.2898C72.5028 45.1305 72.3278 44.3773 70.5685 44.3523C68.8091 44.3273 67.2935 44.6867 67.131 45.1523C66.8254 46.0028 66.58 46.8737 66.3966 47.7586C64.9405 51.3508 63.1481 54.7974 61.0435 58.0523C59.8643 56.1192 59.3793 53.8419 59.6685 51.5961C59.9356 50.3338 60.2821 49.0897 60.706 47.8711C60.6903 47.7117 60.5153 46.9586 58.756 46.9336C56.9966 46.9086 55.481 47.268 55.3185 47.7336C55.156 48.1992 54.9497 49.2961 54.5841 50.3398C54.2185 51.3836 49.9497 60.9211 48.831 63.3805C48.256 64.6305 47.7591 65.6492 47.4091 66.3367C47.3925 66.3813 47.3716 66.4243 47.3466 66.4648L46.8685 67.3773V67.393C46.6278 67.8242 46.3716 68.2242 46.2435 68.2242C46.02 67.3314 46.0307 66.396 46.2747 65.5086C46.8997 62.1992 48.431 57.0554 48.4153 56.8773C48.4153 56.7804 48.7028 55.8867 47.4247 55.4242C47.1283 55.2831 46.7954 55.2374 46.4719 55.2934C46.1484 55.3494 45.8503 55.5042 45.6185 55.7367C45.506 55.7367 45.4278 56.0086 45.4278 56.0086C45.4278 56.0086 46.8185 50.2242 42.7747 50.2242C41.2 50.541 39.7045 51.1694 38.3763 52.0726C37.048 52.9758 35.9138 54.1356 35.0403 55.4836C33.9528 56.0742 31.6372 57.3367 29.1591 58.6961C28.2216 59.2242 27.2403 59.7523 26.331 60.2586C26.2685 60.1961 26.2028 60.1148 26.1403 60.0523C21.2185 54.8086 12.1716 51.1086 12.5622 44.0929C12.706 41.5367 13.5841 34.8242 29.9341 26.6711C43.3903 20.0398 54.0997 21.8773 55.9528 25.9523C58.606 31.7711 50.2153 42.5742 36.3122 44.1398C34.7741 44.4519 33.1855 44.4142 31.664 44.0296C30.1424 43.645 28.7267 42.9234 27.5216 41.918C26.7872 41.118 26.6747 41.0711 26.4028 41.2304C25.956 41.4711 26.2435 42.1898 26.4028 42.6054C26.9332 43.5653 27.6506 44.4091 28.5126 45.087C29.3746 45.7649 30.3638 46.2632 31.4216 46.5523C36.8911 47.7343 42.5936 47.1691 47.7247 44.9367C56.1622 41.6773 62.7247 32.6148 60.7997 25.0242C58.8653 17.3211 46.081 14.7805 33.981 19.0867C26.4021 21.6369 19.3992 25.6539 13.3716 30.9086C6.70596 37.143 5.65283 42.5586 6.08408 44.8305C7.64658 52.8867 18.7435 58.1273 23.1841 62.0179C22.9835 62.132 22.7814 62.2435 22.5778 62.3523C20.356 63.4554 11.8872 67.8836 9.76533 72.5648C7.36846 77.8773 10.1497 81.6742 11.9872 82.1867C14.756 82.8495 17.6626 82.6312 20.3013 81.5622C22.94 80.4933 25.1791 78.6271 26.706 76.2242C28.0062 74.2311 28.8054 71.9533 29.0355 69.5848C29.2657 67.2163 28.92 64.8272 28.0278 62.6211C28.0128 62.5854 27.9916 62.5526 27.9653 62.5242L29.706 61.5023C30.7636 60.8771 31.8347 60.2749 32.9185 59.6961C32.2679 61.5725 31.886 63.5315 31.7841 65.5148C31.5632 68.5547 32.4935 71.5666 34.3903 73.9523C34.679 74.2008 35.014 74.3895 35.3761 74.5075C35.7382 74.6255 36.1201 74.6705 36.4997 74.6398C38.3747 74.6398 39.2341 73.0773 40.1747 71.2211C41.3247 68.9523 42.3622 66.3148 42.3622 66.3148C42.3622 66.3148 41.0685 73.4429 44.5841 73.4429C45.8622 73.4429 47.156 71.7804 47.7341 70.943V70.9586L47.831 70.7992L48.0372 70.4648V70.4336C48.5497 69.5398 49.6997 67.5086 51.4091 64.1367C53.6153 59.7898 55.7403 54.3554 55.7403 54.3554C55.9453 55.5497 56.2282 56.7293 56.5872 57.8867C57.1019 59.2896 57.7106 60.6563 58.4091 61.9773C57.8966 62.6961 57.5778 63.0961 57.5778 63.0961L57.5935 63.1117C57.1778 63.6554 56.731 64.2461 56.2341 64.8211C54.7558 66.4464 53.3842 68.1656 52.1278 69.9679C51.9412 70.2707 51.877 70.6332 51.9484 70.9816C52.0199 71.33 52.2215 71.6381 52.5122 71.843C53.1701 72.1853 53.9199 72.3089 54.6528 72.1961C55.7574 72.1337 56.8434 71.8854 57.8653 71.4617C58.8529 71.1142 59.7845 70.6247 60.631 70.0086C61.5036 69.404 62.206 68.5852 62.6706 67.6307C63.1352 66.6762 63.3465 65.6183 63.2841 64.5586C63.1858 63.2237 62.8448 61.9179 62.2778 60.7054C62.4372 60.4804 62.5903 60.2586 62.7403 60.0336C64.517 57.3817 66.1183 54.6164 67.5341 51.7554C67.739 52.9497 68.0219 54.1294 68.381 55.2867C68.8055 56.4991 69.328 57.6748 69.9435 58.8023C67.8995 60.3749 66.2896 62.4419 65.2653 64.8086C64.2591 67.7179 65.0403 69.0273 66.5153 69.3304C67.3224 69.3861 68.1295 69.2208 68.8497 68.8523C69.9087 68.5043 70.9063 67.9918 71.806 67.3336C72.7546 66.7737 73.5491 65.9868 74.118 65.0437C74.687 64.1005 75.0125 63.0307 75.0653 61.9305C74.9944 60.8322 74.7464 59.7527 74.331 58.7336C77.0281 57.6798 79.9526 57.3439 82.8185 57.7586C90.4247 58.6523 91.9278 63.3992 91.6403 65.3992C91.5055 66.1082 91.2204 66.7802 90.8043 67.3698C90.3882 67.9595 89.8507 68.4533 89.2278 68.818C88.6997 69.1523 88.5247 69.2648 88.5716 69.5054C88.6341 69.8586 88.8841 69.8398 89.3372 69.7773C90.4836 69.421 91.495 68.7256 92.2382 67.7828C92.9813 66.8399 93.4211 65.694 93.4997 64.4961C93.7403 59.8086 89.2653 54.6679 81.3528 54.7148L81.3435 54.7211ZM22.656 74.4961C20.131 77.2461 16.6153 78.2836 15.0966 77.4054C13.4653 76.4679 14.106 72.4054 17.206 69.493C19.0449 67.8376 21.0324 66.3553 23.1435 65.0648C23.5122 64.8398 24.056 64.5211 24.706 64.1273L24.881 64.0305L25.2653 63.7898C25.8192 65.6454 25.8694 67.615 25.4108 69.4964C24.9523 71.3778 24.0015 73.1034 22.656 74.4961ZM41.0341 61.9961C40.156 64.1367 38.3185 69.6211 37.1997 69.3148C36.2403 69.0586 35.6372 64.9023 37.0091 60.7961C37.7017 58.8194 38.7107 56.9682 39.9966 55.3148C41.3716 53.7804 42.8903 53.2679 43.256 53.8929C42.9224 56.6894 42.1735 59.4205 41.0341 61.9961ZM56.1997 69.2523C55.831 69.443 55.481 69.5648 55.3216 69.4773C55.2091 69.4148 55.481 69.1648 55.481 69.1648C55.481 69.1648 57.3841 67.118 58.1341 66.193C58.5653 65.6492 59.0716 65.0117 59.6216 64.2898V64.4961C59.6216 66.9398 57.256 68.5867 56.2028 69.2586L56.1997 69.2523ZM67.8997 66.5836C67.6278 66.3929 67.6747 65.7523 68.5872 63.7554C69.2217 62.473 70.1081 61.3315 71.1935 60.3992C71.3598 60.8722 71.4464 61.3696 71.4497 61.8711C71.462 62.9384 71.1208 63.9798 70.4792 64.8328C69.8376 65.6858 68.9317 66.3025 67.9028 66.5867L67.8997 66.5836Z" fill="#CD6799"/>
</svg>
