<svg width="30" height="30" viewBox="0 0 30 30" fill="none" xmlns="http://www.w3.org/2000/svg">
<path d="M26.6667 0H3.33333C1.5 0 0 1.5 0 3.33333V26.6667C0 28.5 1.5 30 3.33333 30H26.6667C28.5 30 30 28.5 30 26.6667V3.33333C30 1.5 28.5 0 26.6667 0ZM13.3333 8.33333H10V11.6667C10 13.5 8.5 15 6.66667 15C8.5 15 10 16.5 10 18.3333V21.6667H13.3333V25H10C8.16667 25 6.66667 23.5 6.66667 21.6667V20C6.66667 18.1667 5.16667 16.6667 3.33333 16.6667V13.3333C5.16667 13.3333 6.66667 11.8333 6.66667 10V8.33333C6.66667 6.5 8.16667 5 10 5H13.3333V8.33333ZM26.6667 16.6667C24.8333 16.6667 23.3333 18.1667 23.3333 20V21.6667C23.3333 23.5 21.8333 25 20 25H16.6667V21.6667H20V18.3333C20 16.5 21.5 15 23.3333 15C21.5 15 20 13.5 20 11.6667V8.33333H16.6667V5H20C21.8333 5 23.3333 6.5 23.3333 8.33333V10C23.3333 11.8333 24.8333 13.3333 26.6667 13.3333V16.6667Z" fill="white"/>
</svg>
