<svg width="100" height="100" viewBox="0 0 100 100" fill="none" xmlns="http://www.w3.org/2000/svg">
<path d="M56.4063 92.5006C56.5375 92.2037 56.8688 91.9974 57.1094 91.7474C60.7813 87.8974 64.4844 84.0818 68.1063 80.185C69.2396 79.1382 70.1154 77.8434 70.6652 76.4019C71.2149 74.9604 71.4236 73.4112 71.275 71.8756C71.1613 71.218 71.0121 70.567 70.8281 69.9256C69.8406 70.8631 68.9219 71.7162 67.9969 72.5756C66.5594 73.9131 65.1281 75.2568 63.6781 76.5787C62.8231 77.4505 61.7238 78.0423 60.5253 78.2761C59.3268 78.5099 58.0856 78.3746 56.9656 77.8881C55.8319 77.4716 54.8455 76.7313 54.1288 75.759C53.4121 74.7868 52.9968 73.6255 52.9344 72.4193C52.9008 72.2642 52.8559 72.1117 52.8 71.9631C51.6969 72.9006 50.6406 73.7631 49.5938 74.6506L27.8344 93.0881C27.6844 93.2162 27.5219 93.3756 27.3813 93.5006H56.3906L56.3469 93.4724C56.1906 93.3631 56.2719 92.7881 56.4063 92.5006ZM26.0531 92.5006C26.3112 92.1646 26.6226 91.8732 26.975 91.6381L57.0875 66.0912C59.1417 64.3475 61.1865 62.5943 63.2219 60.8318C63.4734 60.6565 63.6705 60.4139 63.7906 60.1318C64.2775 58.0103 64.3465 55.8142 63.9938 53.6662C63.6813 53.885 63.5125 53.9787 63.3688 54.1318C60.9031 56.3381 58.45 58.5631 55.9719 60.7568C55.151 61.5831 54.0892 62.1277 52.9392 62.3124C51.7892 62.4972 50.6103 62.3125 49.5719 61.785C48.5125 61.2848 47.6259 60.4808 47.0249 59.4752C46.4238 58.4697 46.1356 57.308 46.1969 56.1381V55.1256C45.7438 55.4568 45.4125 55.6787 45.1031 55.9287C33.0511 65.5787 21.0011 75.2214 8.95314 84.8568C8.40939 85.2912 7.75939 86.26 7.04689 85.3193C6.33439 84.3787 7.41876 83.9912 7.96564 83.5537C20.8094 73.2475 33.6594 62.9506 46.5156 52.6631C48.6094 50.985 48.7469 50.2818 47.3844 47.6162L46.5719 48.3787C44.3438 50.4506 42.0906 52.4943 39.8969 54.6006C38.997 55.4686 37.87 56.0644 36.6459 56.3191C35.4219 56.5739 34.1507 56.4772 32.9793 56.0403C31.8078 55.6035 30.7838 54.8441 30.0255 53.8501C29.2672 52.856 28.8055 51.6677 28.6938 50.4225C28.2781 50.735 27.9188 50.9631 27.5781 51.2287L8.51564 66.0037C8.18686 66.3262 7.81192 66.5979 7.40314 66.81C7.09462 66.9032 6.76332 66.8866 6.46564 66.7631V93.5162H26.0156C25.943 93.3555 25.9085 93.1802 25.915 93.004C25.9215 92.8278 25.9688 92.6554 26.0531 92.5006Z" fill="#FFCEBF"/>
<path d="M78.8656 7.57236C78.3344 9.31299 77.8188 11.0567 77.3531 12.8161C76.923 14.0594 76.9731 15.4186 77.4934 16.6269C78.0137 17.8352 78.9668 18.8055 80.1656 19.3474C83.8325 21.2749 87.9646 22.1407 92.0969 21.8474V7.86924C92.051 7.56277 92.068 7.25016 92.1469 6.95049C92.2344 6.78097 92.3448 6.6243 92.475 6.48486H78.8531C79.0625 6.72861 78.9906 7.15674 78.8656 7.57236Z" fill="#FF6196"/>
<path d="M51.5063 37.6005C51.4415 39.1607 50.8957 40.6626 49.9438 41.9005C46.5407 46.2934 42.6326 50.2708 38.3 53.7505C37.6014 54.3972 36.7158 54.806 35.7704 54.9183C34.8249 55.0306 33.8683 54.8406 33.0375 54.3755C32.2107 54.0222 31.5135 53.4216 31.0418 52.6561C30.5701 51.8906 30.347 50.9979 30.4032 50.1005C30.5032 48.9983 30.9609 47.9591 31.7063 47.1411C36.5511 42.5214 41.8002 38.3454 47.3907 34.663C47.7568 34.3759 48.2039 34.2111 48.6688 34.192C49.1337 34.173 49.5929 34.3006 49.9813 34.5567C50.4918 34.8737 50.9045 35.3259 51.1737 35.8632C51.4429 36.4004 51.558 37.0018 51.5063 37.6005ZM47.7625 56.5411C47.69 55.8503 47.7787 55.1522 48.0216 54.5015C48.2645 53.8508 48.6551 53.2653 49.1625 52.7911C53.9062 48.4158 58.9957 44.431 64.3813 40.8755C64.5438 40.7723 64.6938 40.6692 64.8719 40.563C65.3423 40.2234 65.9123 40.0498 66.4922 40.0696C67.072 40.0894 67.6289 40.3014 68.075 40.6723C68.5067 41.038 68.8122 41.5305 68.9479 42.0797C69.0837 42.629 69.0429 43.207 68.8313 43.7317C68.1499 46.0011 66.8924 48.0553 65.1813 49.6942C61.706 53.1178 58.1637 56.4727 54.5563 59.7567C54.013 60.3154 53.2994 60.6775 52.5277 60.7862C51.756 60.8948 50.9702 60.7437 50.2938 60.3567C49.583 59.9874 48.9779 59.4435 48.5351 58.776C48.0923 58.1085 47.8265 57.3395 47.7625 56.5411ZM70.3125 58.6067C69.4375 59.5442 68.5375 60.438 67.6969 61.3973C67.4441 61.7681 67.2344 62.1665 67.0719 62.5848C67.5344 62.7223 68.075 63.0848 68.45 62.9567C70.3594 62.3161 72.2219 61.5473 74.3188 60.738C73.8625 61.788 73.5188 62.7567 73.0344 63.6442C71.0389 66.9978 68.54 70.0247 65.625 72.6192C64.5167 73.688 63.3657 74.7098 62.1719 75.6848C61.5397 76.2095 60.7796 76.5567 59.9691 76.6911C59.1587 76.8256 58.3271 76.7423 57.5594 76.4498C56.7917 76.1574 56.1155 75.6662 55.5999 75.0267C55.0844 74.3871 54.7479 73.6221 54.625 72.8098C54.5749 72.3582 54.6149 71.9011 54.7425 71.4651C54.8702 71.029 55.083 70.6225 55.3688 70.2692C59.6213 65.6513 64.4814 61.6322 69.8157 58.3223C69.8805 58.2972 69.9492 58.2834 70.0188 58.2817L70.3125 58.6067Z" fill="#FF87AF"/>
<path d="M77.4812 46.1599L82.8281 22.4099L86.5781 23.288L84.6437 29.1662C82.8375 34.6349 81.0093 40.1037 79.2468 45.5787C78.9031 46.5912 78.4531 46.7787 77.4812 46.1599ZM71.4437 60.1287C72.0094 57.9693 72.5719 55.9724 73.0469 53.9537C73.5098 51.9959 74.3903 50.1614 75.6281 48.5755C76.3875 47.5787 77.2406 47.9755 78.1125 48.1912C78.9187 48.388 79.1219 48.9787 79.1562 49.7537C79.2834 51.8968 78.6307 54.0136 77.3187 55.713C75.7569 57.6493 73.7379 59.1667 71.4437 60.1287Z" fill="#FF6196"/>
<path d="M93.7281 9.04424C93.7748 8.34826 93.757 7.64945 93.675 6.95674C93.6105 6.76325 93.4829 6.59706 93.3125 6.48487C93.1738 6.37207 93.0114 6.29196 92.8375 6.25049C92.7375 6.23174 92.5969 6.33487 92.4625 6.48174C92.3323 6.62118 92.2219 6.77785 92.1344 6.94737C92.0555 7.24704 92.0385 7.55965 92.0844 7.86612V21.8411C87.9521 22.1344 83.8201 21.2686 80.1531 19.3411C78.9543 18.7992 78.0013 17.829 77.4809 16.6206C76.9606 15.4123 76.9106 14.0532 77.3406 12.8099C77.8063 11.0505 78.3219 9.30674 78.8531 7.56612C78.9781 7.15049 79.05 6.72237 78.8531 6.47862C78.7436 6.35996 78.5924 6.28828 78.4313 6.27862C78.2248 6.28084 78.0249 6.35115 77.8625 6.47862C77.6288 6.6184 77.4426 6.82529 77.3281 7.07237C76.7031 8.94737 76.1531 10.8411 75.675 12.7536C75.4945 13.5073 75.4459 14.2865 75.5313 15.0567C75.6522 16.4504 76.1705 17.7801 77.0247 18.888C77.8788 19.9958 79.0329 20.8353 80.35 21.3067C80.9406 21.5536 81.2875 21.7974 81.1219 22.5755C80.8938 23.563 80.6719 24.5505 80.4469 25.5411C78.9156 32.2536 77.3927 38.9692 75.8781 45.688C75.8355 45.9875 75.7037 46.2674 75.5 46.4911C74.5017 47.2846 73.663 48.2602 73.0281 49.3661C72.2192 50.8256 71.6594 52.4099 71.3719 54.0536C71.3167 54.5779 71.1272 55.0792 70.8218 55.5089C70.5163 55.9386 70.1052 56.2823 69.6281 56.5067C68.325 57.1661 67.1281 58.0192 65.6813 58.9067C65.7777 57.1668 65.7589 55.4223 65.625 53.6849C65.5149 53.1504 65.5383 52.597 65.6931 52.0737C65.8479 51.5504 66.1293 51.0734 66.5125 50.6849C68.4185 48.7967 69.777 46.4273 70.4438 43.8286C70.6429 43.2262 70.6975 42.5854 70.6032 41.958C70.5088 41.3306 70.2682 40.7342 69.9007 40.217C69.5332 39.6999 69.0491 39.2764 68.4877 38.9809C67.9262 38.6854 67.3031 38.5262 66.6688 38.5161C65.6417 38.5047 64.6332 38.7912 63.7656 39.3411C60.7838 41.3774 57.8537 43.4885 54.9781 45.6724C53.2688 46.9599 51.6594 48.3849 50.0031 49.7349C49.9318 49.6582 49.8699 49.5732 49.8188 49.4817C49.7871 49.2517 49.7251 49.0268 49.6344 48.813C48.25 46.6755 49.2094 45.1224 50.7125 43.5255C52.2785 41.884 53.1438 39.6972 53.125 37.4286C53.1736 36.2727 52.8116 35.137 52.1031 34.2224C51.7257 33.7581 51.2607 33.3726 50.7344 33.088C49.9869 32.6789 49.1321 32.5081 48.2848 32.5986C47.4374 32.6891 46.638 33.0365 45.9938 33.5942L45.1219 34.2192C43.1313 35.6442 41.1156 37.0317 39.2 38.5567C36.4035 40.7895 33.6671 43.0965 30.9938 45.4755C29.7438 46.5786 28.8313 48.0849 27.5344 49.1099C20.7719 54.4505 13.9375 59.6942 7.12815 64.9724C6.894 65.112 6.67871 65.2811 6.48752 65.4755C6.46784 65.5039 6.45109 65.5343 6.43752 65.5661C6.29377 65.9005 6.1719 66.4536 6.34065 66.6567C6.38201 66.7008 6.43201 66.7359 6.48752 66.7599C6.7852 66.8834 7.1165 66.9 7.42502 66.8067C7.8338 66.5947 8.20875 66.3229 8.53752 66.0005L27.6 51.2255C27.9406 50.9599 28.3 50.7192 28.7156 50.4192C28.8274 51.6645 29.2891 52.8528 30.0474 53.8468C30.8057 54.8409 31.8297 55.6002 33.0012 56.0371C34.1726 56.474 35.4438 56.5707 36.6678 56.3159C37.8919 56.0611 39.0189 55.4654 39.9188 54.5974C42.1063 52.4911 44.3656 50.4474 46.5938 48.3755L47.4063 47.613C48.7688 50.2786 48.6313 50.9817 46.5375 52.6599C33.6709 62.9557 20.8136 73.2536 7.96565 83.5536C7.41877 83.9911 6.33752 84.388 7.0469 85.3192C7.75627 86.2505 8.4094 85.2911 8.95315 84.8567C21.0073 75.2296 33.0531 65.5901 45.0906 55.938C45.4031 55.688 45.7313 55.4661 46.1844 55.1349V56.1474C46.1231 57.3173 46.4114 58.4789 47.0124 59.4845C47.6134 60.4901 48.5 61.2941 49.5594 61.7942C50.5978 62.3218 51.7767 62.5065 52.9267 62.3217C54.0767 62.137 55.1385 61.5923 55.9594 60.7661C58.4375 58.5786 60.8906 56.3474 63.3563 54.1411C63.5125 54.0005 63.6938 53.8942 63.9813 53.6755C64.334 55.8234 64.265 58.0195 63.7781 60.1411C63.658 60.4232 63.4609 60.6657 63.2094 60.8411C61.1719 62.6015 59.1271 64.3546 57.075 66.1005L26.975 91.6505C26.6226 91.8856 26.3112 92.177 26.0531 92.513C25.9708 92.6662 25.9246 92.8363 25.9181 93.0102C25.9116 93.1841 25.945 93.3571 26.0156 93.5161C26.1569 93.6219 26.3201 93.6945 26.4932 93.7286C26.6663 93.7627 26.8449 93.7573 27.0156 93.713C27.1504 93.6738 27.2744 93.6044 27.3781 93.5098C27.5344 93.3848 27.6906 93.2255 27.8313 93.0974L49.5906 74.6599C50.6375 73.7724 51.6938 72.8974 52.7969 71.9724C52.8528 72.121 52.8977 72.2734 52.9313 72.4286C52.9937 73.6348 53.409 74.7961 54.1257 75.7683C54.8424 76.7405 55.8288 77.4809 56.9625 77.8974C58.0825 78.3839 59.3237 78.5192 60.5222 78.2854C61.7207 78.0516 62.82 77.4597 63.675 76.588C65.125 75.2661 66.5563 73.9224 67.9938 72.5849C68.9313 71.7255 69.8375 70.863 70.825 69.9349C71.009 70.5763 71.1582 71.2273 71.2719 71.8849C71.4155 73.4154 71.2044 74.9585 70.6548 76.3942C70.1053 77.8299 69.2321 79.1195 68.1031 80.163C64.4813 84.063 60.7781 87.8786 57.1063 91.7255C56.8656 91.9755 56.5344 92.1817 56.4031 92.4786C56.2719 92.7755 56.1875 93.3567 56.3438 93.4817L56.3875 93.5098C56.7152 93.6692 57.0837 93.7248 57.4438 93.6692C57.5447 93.6485 57.6346 93.5919 57.6969 93.5098C57.7844 93.4192 57.8688 93.3067 57.9531 93.2224C60.9281 90.1474 63.9188 87.088 66.8719 83.9911C68.0639 82.7834 69.1846 81.5073 70.2281 80.1692C71.589 78.6628 72.4913 76.799 72.829 74.7972C73.1667 72.7954 72.9257 70.7388 72.1344 68.8692C72.0493 68.4524 72.1325 68.0188 72.3656 67.663C72.5688 67.313 72.7938 66.9724 73.025 66.6349C73.765 65.6741 74.3812 64.6242 74.8594 63.5099C75.7834 60.7748 77.2017 58.2327 79.0438 56.0099C79.8906 54.9362 80.4733 53.6785 80.7447 52.3383C81.0161 50.9981 80.9687 49.6128 80.6063 48.2942C80.4782 47.7929 80.4782 47.2674 80.6063 46.7661C82.1875 41.8692 83.8156 36.988 85.4281 32.1036L87.5844 25.5599L88.25 23.538C89.6688 23.538 91.0063 23.5099 92.3375 23.538C93.4438 23.5692 93.7813 23.0505 93.7688 21.9755C93.7031 17.663 93.7281 13.3536 93.7281 9.04424ZM38.3 53.7505C37.6013 54.3972 36.7158 54.8061 35.7704 54.9183C34.8249 55.0306 33.8682 54.8406 33.0375 54.3755C32.2107 54.0222 31.5135 53.4216 31.0418 52.6561C30.5701 51.8906 30.347 50.9979 30.4031 50.1005C30.5032 48.9983 30.9608 47.9591 31.7063 47.1411C36.5511 42.5215 41.8002 38.3454 47.3906 34.663C47.6958 34.4473 48.0429 34.2982 48.4094 34.2255C48.6552 34.1801 48.9073 34.1801 49.1531 34.2255C49.4476 34.2828 49.7285 34.3952 49.9813 34.5567C50.4923 34.874 50.9054 35.3267 51.1746 35.8646C51.4438 36.4024 51.5586 37.0044 51.5063 37.6036C51.4415 39.1638 50.8957 40.6658 49.9438 41.9036C46.5405 46.2955 42.6324 50.2718 38.3 53.7505ZM54.55 59.7786C54.0067 60.3373 53.2931 60.6994 52.5214 60.808C51.7498 60.9167 50.9639 60.7656 50.2875 60.3786C49.5755 60.0085 48.9695 59.4631 48.5266 58.7938C48.0838 58.1246 47.8187 57.3537 47.7563 56.5536C47.6837 55.8629 47.7724 55.1647 48.0153 54.514C48.2583 53.8633 48.6488 53.2778 49.1563 52.8036C53.9 48.4283 58.9894 44.4435 64.375 40.888C64.5375 40.7849 64.6875 40.6817 64.8656 40.5755C65.3361 40.2359 65.9061 40.0623 66.4859 40.0821C67.0658 40.1019 67.6226 40.3139 68.0688 40.6849C68.5005 41.0505 68.8059 41.543 68.9417 42.0922C69.0774 42.6415 69.0366 43.2195 68.825 43.7442C68.1437 46.0136 66.8862 48.0678 65.175 49.7067C61.7281 53.1505 58.1438 56.4661 54.5563 59.7661L54.55 59.7786ZM73.0219 63.6567C71.0292 67.005 68.5345 70.0276 65.625 72.6192C64.5167 73.688 63.3656 74.7099 62.1719 75.6849C61.5397 76.2095 60.7795 76.5567 59.9691 76.6912C59.1587 76.8256 58.3271 76.7423 57.5594 76.4498C56.7917 76.1574 56.1155 75.6663 55.5999 75.0267C55.0843 74.3871 54.7479 73.6221 54.625 72.8099C54.5749 72.3582 54.6149 71.9012 54.7425 71.4651C54.8702 71.029 55.083 70.6225 55.3688 70.2692C59.6213 65.6513 64.4814 61.6323 69.8156 58.3224C69.8805 58.2972 69.9492 58.2835 70.0188 58.2817L70.3313 58.5942C69.4563 59.5317 68.5563 60.4255 67.7156 61.3849C67.4629 61.7557 67.2532 62.1541 67.0906 62.5724C67.5531 62.7099 68.0938 63.0724 68.4688 62.9442C69.9781 62.438 71.4625 61.8505 73.0531 61.2255L74.3375 60.7255C73.8563 61.788 73.5125 62.7567 73.0281 63.6442L73.0219 63.6567ZM77.3125 55.7349C76.1469 57.2188 74.6858 58.4447 73.0219 59.3349C72.5073 59.6224 71.9792 59.8911 71.4375 60.1411C71.9938 58.013 72.55 56.0411 73.0219 54.0474L73.0406 53.9661C73.5036 52.0084 74.3841 50.1738 75.6219 48.588C76.3813 47.5911 77.2344 47.988 78.1063 48.2036C78.9125 48.4005 79.1156 48.9911 79.15 49.7661C79.2782 51.9074 78.6278 54.0229 77.3188 55.7224L77.3125 55.7349ZM84.625 29.1724C82.8188 34.6411 80.9906 40.1099 79.2281 45.5849C78.8969 46.613 78.4469 46.8005 77.475 46.1817L82.1094 25.5786L82.8219 22.4161L86.5719 23.2942L85.8188 25.5786L84.625 29.1724Z" fill="black"/>
</svg>
