<svg width="35" height="35" viewBox="0 0 35 35" fill="none" xmlns="http://www.w3.org/2000/svg">
<path d="M0 0H35V35H0V0ZM20.825 28.8944C21.7972 30.8 23.7611 32.2583 26.8333 32.2583C29.9444 32.2583 32.2778 30.6444 32.2778 27.6694C32.2778 24.9278 30.7028 23.7028 27.9028 22.4972L27.0861 22.1472C25.6667 21.5444 25.0639 21.1361 25.0639 20.1639C25.0639 19.3667 25.6667 18.7444 26.6389 18.7444C27.5722 18.7444 28.1944 19.1528 28.7583 20.1639L31.3056 18.4722C30.2361 16.6056 28.7194 15.8861 26.6389 15.8861C23.7028 15.8861 21.8167 17.7528 21.8167 20.2222C21.8167 22.9056 23.3917 24.1694 25.7639 25.1806L26.5806 25.5306C28.0972 26.1917 28.9917 26.6 28.9917 27.7278C28.9917 28.6611 28.1167 29.3417 26.7556 29.3417C25.1417 29.3417 24.2083 28.5056 23.5083 27.3389L20.825 28.8944ZM19.4444 16.0417H9.72222V18.9583H12.6389V33.0556H16.0417V18.9583H19.4444V16.0417Z" fill="#E5E5E5"/>
</svg>
